<svg xmlns="http://www.w3.org/2000/svg" xmlns:xlink="http://www.w3.org/1999/xlink" width="1240" zoomAndPan="magnify" viewBox="0 0 930 540.000001" height="720" preserveAspectRatio="xMidYMid meet" version="1.0"><defs><clipPath id="id1"><path d="M 20.625 0 L 909.230469 0 L 909.230469 539 L 20.625 539 Z M 20.625 0 " clip-rule="nonzero"/></clipPath><clipPath id="id2"><path d="M 118.925781 0 L 785.941406 0 L 785.941406 539 L 118.925781 539 Z M 118.925781 0 " clip-rule="nonzero"/></clipPath><clipPath id="id3"><path d="M 217.609375 42.171875 L 686.988281 42.171875 L 686.988281 511.550781 L 217.609375 511.550781 Z M 217.609375 42.171875 " clip-rule="nonzero"/></clipPath><clipPath id="id4"><path d="M 68.875 0 L 836.203125 0 L 836.203125 539 L 68.875 539 Z M 68.875 0 " clip-rule="nonzero"/></clipPath><clipPath id="id5"><path d="M 196.535156 158.054688 L 284.121094 158.054688 L 284.121094 245.640625 L 196.535156 245.640625 Z M 196.535156 158.054688 " clip-rule="nonzero"/></clipPath><clipPath id="id6"><path d="M 158.238281 0 L 759.375 0 L 759.375 539 L 158.238281 539 Z M 158.238281 0 " clip-rule="nonzero"/></clipPath><clipPath id="id7"><path d="M 20.625 50.933594 L 108.214844 50.933594 L 108.214844 138.523438 L 20.625 138.523438 Z M 20.625 50.933594 " clip-rule="nonzero"/></clipPath><clipPath id="id8"><path d="M 24 72.691406 L 93 72.691406 L 93 96 L 24 96 Z M 24 72.691406 " clip-rule="nonzero"/></clipPath><clipPath id="id9"><path d="M 21 100 L 96 100 L 96 116.859375 L 21 116.859375 Z M 21 100 " clip-rule="nonzero"/></clipPath><clipPath id="id10"><path d="M 107.78125 378.210938 L 195.371094 378.210938 L 195.371094 465.796875 L 107.78125 465.796875 Z M 107.78125 378.210938 " clip-rule="nonzero"/></clipPath><clipPath id="id11"><path d="M 126.242188 406 L 144 406 L 144 438 L 126.242188 438 Z M 126.242188 406 " clip-rule="nonzero"/></clipPath><clipPath id="id12"><path d="M 176.511719 417.378906 L 152.261719 417.378906 L 152.261719 427.425781 L 166.222656 427.425781 C 164.917969 433.808594 159.480469 437.476562 152.261719 437.476562 C 143.746094 437.476562 136.886719 430.617188 136.886719 422.109375 C 136.886719 413.597656 143.746094 406.742188 152.261719 406.742188 C 155.929688 406.742188 159.242188 408.039062 161.84375 410.167969 L 169.414062 402.601562 C 164.800781 398.582031 158.886719 396.101562 152.261719 396.101562 C 137.832031 396.101562 126.242188 407.6875 126.242188 422.109375 C 126.242188 436.527344 137.832031 448.113281 152.261719 448.113281 C 165.273438 448.113281 177.101562 438.65625 177.101562 422.109375 C 177.101562 420.570312 176.867188 418.914062 176.511719 417.378906 Z M 176.511719 417.378906 " clip-rule="nonzero"/></clipPath><clipPath id="id13"><path d="M 126.242188 396 L 177.101562 396 L 177.101562 423 L 126.242188 423 Z M 126.242188 396 " clip-rule="nonzero"/></clipPath><clipPath id="id14"><path d="M 176.511719 417.378906 L 152.261719 417.378906 L 152.261719 427.425781 L 166.222656 427.425781 C 164.917969 433.808594 159.480469 437.476562 152.261719 437.476562 C 143.746094 437.476562 136.886719 430.617188 136.886719 422.109375 C 136.886719 413.597656 143.746094 406.742188 152.261719 406.742188 C 155.929688 406.742188 159.242188 408.039062 161.84375 410.167969 L 169.414062 402.601562 C 164.800781 398.582031 158.886719 396.101562 152.261719 396.101562 C 137.832031 396.101562 126.242188 407.6875 126.242188 422.109375 C 126.242188 436.527344 137.832031 448.113281 152.261719 448.113281 C 165.273438 448.113281 177.101562 438.65625 177.101562 422.109375 C 177.101562 420.570312 176.867188 418.914062 176.511719 417.378906 Z M 176.511719 417.378906 " clip-rule="nonzero"/></clipPath><clipPath id="id15"><path d="M 126.242188 396 L 177.101562 396 L 177.101562 448.113281 L 126.242188 448.113281 Z M 126.242188 396 " clip-rule="nonzero"/></clipPath><clipPath id="id16"><path d="M 176.511719 417.378906 L 152.261719 417.378906 L 152.261719 427.425781 L 166.222656 427.425781 C 164.917969 433.808594 159.480469 437.476562 152.261719 437.476562 C 143.746094 437.476562 136.886719 430.617188 136.886719 422.109375 C 136.886719 413.597656 143.746094 406.742188 152.261719 406.742188 C 155.929688 406.742188 159.242188 408.039062 161.84375 410.167969 L 169.414062 402.601562 C 164.800781 398.582031 158.886719 396.101562 152.261719 396.101562 C 137.832031 396.101562 126.242188 407.6875 126.242188 422.109375 C 126.242188 436.527344 137.832031 448.113281 152.261719 448.113281 C 165.273438 448.113281 177.101562 438.65625 177.101562 422.109375 C 177.101562 420.570312 176.867188 418.914062 176.511719 417.378906 Z M 176.511719 417.378906 " clip-rule="nonzero"/></clipPath><clipPath id="id17"><path d="M 139 406 L 177.101562 406 L 177.101562 448.113281 L 139 448.113281 Z M 139 406 " clip-rule="nonzero"/></clipPath><clipPath id="id18"><path d="M 176.511719 417.378906 L 152.261719 417.378906 L 152.261719 427.425781 L 166.222656 427.425781 C 164.917969 433.808594 159.480469 437.476562 152.261719 437.476562 C 143.746094 437.476562 136.886719 430.617188 136.886719 422.109375 C 136.886719 413.597656 143.746094 406.742188 152.261719 406.742188 C 155.929688 406.742188 159.242188 408.039062 161.84375 410.167969 L 169.414062 402.601562 C 164.800781 398.582031 158.886719 396.101562 152.261719 396.101562 C 137.832031 396.101562 126.242188 407.6875 126.242188 422.109375 C 126.242188 436.527344 137.832031 448.113281 152.261719 448.113281 C 165.273438 448.113281 177.101562 438.65625 177.101562 422.109375 C 177.101562 420.570312 176.867188 418.914062 176.511719 417.378906 Z M 176.511719 417.378906 " clip-rule="nonzero"/></clipPath><clipPath id="id19"><path d="M 210.492188 178.925781 L 256.90625 178.925781 L 256.90625 225.339844 L 210.492188 225.339844 Z M 210.492188 178.925781 " clip-rule="nonzero"/></clipPath><clipPath id="id20"><path d="M 732.90625 244.171875 L 820.496094 244.171875 L 820.496094 331.761719 L 732.90625 331.761719 Z M 732.90625 244.171875 " clip-rule="nonzero"/></clipPath><clipPath id="id21"><path d="M 750.738281 253.089844 L 821.109375 253.089844 L 821.109375 323.457031 L 750.738281 323.457031 Z M 750.738281 253.089844 " clip-rule="nonzero"/></clipPath><clipPath id="id22"><path d="M 771 266 L 802 266 L 802 323.457031 L 771 323.457031 Z M 771 266 " clip-rule="nonzero"/></clipPath><clipPath id="id23"><path d="M 796.472656 0 L 884.0625 0 L 884.0625 87.585938 L 796.472656 87.585938 Z M 796.472656 0 " clip-rule="nonzero"/></clipPath><clipPath id="id24"><path d="M 813.390625 15.117188 L 867.292969 15.117188 L 867.292969 69.019531 L 813.390625 69.019531 Z M 813.390625 15.117188 " clip-rule="nonzero"/></clipPath></defs><g clip-path="url(#id1)"><path fill="#e4e4e4" d="M 464.929688 713.730469 C 220.015625 713.730469 20.625 514.34375 20.625 269.429688 C 20.625 24.515625 220.015625 -174.875 464.929688 -174.875 C 709.839844 -174.875 909.230469 24.515625 909.230469 269.429688 C 909.230469 514.34375 709.839844 713.730469 464.929688 713.730469 Z M 464.929688 -168.308594 C 223.515625 -168.308594 27.191406 28.015625 27.191406 269.429688 C 27.191406 510.839844 223.515625 707.164062 464.929688 707.164062 C 706.339844 707.164062 902.664062 510.839844 902.664062 269.429688 C 902.664062 28.015625 706.339844 -168.308594 464.929688 -168.308594 Z M 464.929688 -168.308594 " fill-opacity="1" fill-rule="nonzero"/></g><g clip-path="url(#id2)"><path fill="#e4e4e4" d="M 452.433594 621.625 C 268.59375 621.625 118.925781 471.957031 118.925781 288.117188 C 118.925781 104.277344 268.59375 -45.390625 452.433594 -45.390625 C 636.273438 -45.390625 785.941406 104.277344 785.941406 288.117188 C 785.941406 471.957031 636.273438 621.625 452.433594 621.625 Z M 452.433594 -40.460938 C 271.222656 -40.460938 123.855469 106.90625 123.855469 288.117188 C 123.855469 469.328125 271.222656 616.695312 452.433594 616.695312 C 633.644531 616.695312 781.011719 469.328125 781.011719 288.117188 C 781.011719 106.90625 633.644531 -40.460938 452.433594 -40.460938 Z M 452.433594 -40.460938 " fill-opacity="1" fill-rule="nonzero"/></g><g clip-path="url(#id3)"><path fill="#e4e4e4" d="M 452.300781 511.550781 C 322.929688 511.550781 217.609375 406.230469 217.609375 276.859375 C 217.609375 147.492188 322.929688 42.171875 452.300781 42.171875 C 581.667969 42.171875 686.988281 147.492188 686.988281 276.859375 C 686.988281 406.230469 581.667969 511.550781 452.300781 511.550781 Z M 452.300781 45.640625 C 324.78125 45.640625 221.078125 149.339844 221.078125 276.859375 C 221.078125 404.378906 324.78125 508.082031 452.300781 508.082031 C 579.816406 508.082031 683.519531 404.378906 683.519531 276.859375 C 683.519531 149.34375 579.816406 45.640625 452.300781 45.640625 Z M 452.300781 45.640625 " fill-opacity="1" fill-rule="nonzero"/></g><g clip-path="url(#id4)"><path fill="#fafafa" d="M 452.539062 671.886719 C 241.050781 671.886719 68.875 499.710938 68.875 288.222656 C 68.875 76.734375 241.050781 -95.441406 452.539062 -95.441406 C 664.027344 -95.441406 836.203125 76.734375 836.203125 288.222656 C 836.203125 499.710938 664.027344 671.886719 452.539062 671.886719 Z M 452.539062 -89.769531 C 244.074219 -89.769531 74.542969 79.757812 74.542969 288.222656 C 74.542969 496.6875 244.074219 666.21875 452.539062 666.21875 C 661.003906 666.21875 830.535156 496.6875 830.535156 288.222656 C 830.535156 79.757812 661.003906 -89.769531 452.539062 -89.769531 Z M 452.539062 -89.769531 " fill-opacity="1" fill-rule="nonzero"/></g><g clip-path="url(#id5)"><path fill="#ffffff" d="M 284.121094 201.847656 C 284.121094 203.28125 284.050781 204.710938 283.910156 206.140625 C 283.769531 207.566406 283.5625 208.984375 283.28125 210.390625 C 283 211.796875 282.652344 213.1875 282.238281 214.558594 C 281.820312 215.933594 281.335938 217.28125 280.789062 218.605469 C 280.238281 219.933594 279.628906 221.226562 278.953125 222.492188 C 278.273438 223.757812 277.539062 224.984375 276.742188 226.179688 C 275.945312 227.371094 275.089844 228.519531 274.183594 229.628906 C 273.273438 230.738281 272.308594 231.800781 271.296875 232.816406 C 270.28125 233.828125 269.21875 234.789062 268.109375 235.699219 C 267.003906 236.609375 265.851562 237.464844 264.660156 238.261719 C 263.464844 239.058594 262.238281 239.792969 260.972656 240.46875 C 259.707031 241.148438 258.414062 241.757812 257.085938 242.308594 C 255.761719 242.855469 254.414062 243.339844 253.042969 243.753906 C 251.667969 244.171875 250.277344 244.519531 248.871094 244.800781 C 247.464844 245.078125 246.046875 245.289062 244.621094 245.429688 C 243.195312 245.570312 241.761719 245.640625 240.328125 245.640625 C 238.894531 245.640625 237.464844 245.570312 236.035156 245.429688 C 234.609375 245.289062 233.191406 245.078125 231.785156 244.800781 C 230.378906 244.519531 228.988281 244.171875 227.617188 243.753906 C 226.242188 243.339844 224.894531 242.855469 223.570312 242.308594 C 222.246094 241.757812 220.949219 241.148438 219.683594 240.46875 C 218.417969 239.792969 217.191406 239.058594 215.996094 238.261719 C 214.804688 237.464844 213.65625 236.609375 212.546875 235.699219 C 211.4375 234.789062 210.375 233.828125 209.363281 232.816406 C 208.347656 231.800781 207.386719 230.738281 206.476562 229.628906 C 205.566406 228.519531 204.710938 227.371094 203.914062 226.179688 C 203.117188 224.984375 202.382812 223.757812 201.707031 222.492188 C 201.03125 221.226562 200.417969 219.933594 199.867188 218.605469 C 199.320312 217.28125 198.835938 215.933594 198.421875 214.558594 C 198.003906 213.1875 197.65625 211.796875 197.375 210.390625 C 197.097656 208.984375 196.886719 207.566406 196.746094 206.140625 C 196.605469 204.710938 196.535156 203.28125 196.535156 201.847656 C 196.535156 200.414062 196.605469 198.984375 196.746094 197.554688 C 196.886719 196.128906 197.097656 194.710938 197.375 193.304688 C 197.65625 191.898438 198.003906 190.507812 198.421875 189.136719 C 198.835938 187.761719 199.320312 186.414062 199.867188 185.089844 C 200.417969 183.761719 201.03125 182.46875 201.707031 181.203125 C 202.382812 179.9375 203.117188 178.710938 203.914062 177.515625 C 204.710938 176.324219 205.566406 175.171875 206.476562 174.066406 C 207.386719 172.957031 208.347656 171.894531 209.363281 170.878906 C 210.375 169.867188 211.4375 168.90625 212.546875 167.996094 C 213.65625 167.085938 214.804688 166.230469 215.996094 165.433594 C 217.191406 164.636719 218.417969 163.902344 219.683594 163.226562 C 220.949219 162.546875 222.246094 161.9375 223.570312 161.386719 C 224.894531 160.839844 226.242188 160.355469 227.617188 159.941406 C 228.988281 159.523438 230.378906 159.175781 231.785156 158.894531 C 233.191406 158.617188 234.609375 158.40625 236.035156 158.265625 C 237.464844 158.125 238.894531 158.054688 240.328125 158.054688 C 241.761719 158.054688 243.195312 158.125 244.621094 158.265625 C 246.046875 158.40625 247.464844 158.617188 248.871094 158.894531 C 250.277344 159.175781 251.667969 159.523438 253.042969 159.941406 C 254.414062 160.355469 255.761719 160.839844 257.085938 161.386719 C 258.414062 161.9375 259.707031 162.546875 260.972656 163.226562 C 262.238281 163.902344 263.464844 164.636719 264.660156 165.433594 C 265.851562 166.230469 267.003906 167.085938 268.109375 167.996094 C 269.21875 168.90625 270.28125 169.867188 271.296875 170.878906 C 272.308594 171.894531 273.273438 172.957031 274.183594 174.066406 C 275.089844 175.171875 275.945312 176.324219 276.742188 177.515625 C 277.539062 178.710938 278.273438 179.9375 278.953125 181.203125 C 279.628906 182.46875 280.238281 183.761719 280.789062 185.089844 C 281.335938 186.414062 281.820312 187.761719 282.238281 189.136719 C 282.652344 190.507812 283 191.898438 283.28125 193.304688 C 283.5625 194.710938 283.769531 196.128906 283.910156 197.554688 C 284.050781 198.984375 284.121094 200.414062 284.121094 201.847656 Z M 284.121094 201.847656 " fill-opacity="1" fill-rule="nonzero"/></g><g clip-path="url(#id6)"><path fill="#fafafa" d="M 458.804688 601.136719 C 293.121094 601.136719 158.238281 466.25 158.238281 300.570312 C 158.238281 134.886719 293.121094 0 458.804688 0 C 624.488281 0 759.375 134.886719 759.375 300.570312 C 759.375 466.25 624.488281 601.136719 458.804688 601.136719 Z M 458.804688 4.441406 C 295.492188 4.441406 162.679688 137.253906 162.679688 300.570312 C 162.679688 463.882812 295.492188 596.695312 458.804688 596.695312 C 622.117188 596.695312 754.929688 463.882812 754.929688 300.570312 C 754.929688 137.253906 622.117188 4.441406 458.804688 4.441406 Z M 458.804688 4.441406 " fill-opacity="1" fill-rule="nonzero"/></g><g clip-path="url(#id7)"><path fill="#ffffff" d="M 108.214844 94.726562 C 108.214844 96.164062 108.144531 97.59375 108.003906 99.019531 C 107.863281 100.449219 107.652344 101.863281 107.371094 103.273438 C 107.09375 104.679688 106.742188 106.066406 106.328125 107.441406 C 105.910156 108.8125 105.429688 110.160156 104.878906 111.488281 C 104.332031 112.8125 103.71875 114.105469 103.042969 115.371094 C 102.367188 116.636719 101.628906 117.867188 100.832031 119.058594 C 100.035156 120.25 99.183594 121.402344 98.273438 122.511719 C 97.363281 123.621094 96.402344 124.679688 95.386719 125.695312 C 94.371094 126.710938 93.3125 127.671875 92.203125 128.582031 C 91.09375 129.492188 89.941406 130.34375 88.75 131.140625 C 87.558594 131.9375 86.328125 132.675781 85.0625 133.351562 C 83.796875 134.027344 82.503906 134.640625 81.179688 135.1875 C 79.855469 135.738281 78.503906 136.21875 77.132812 136.636719 C 75.757812 137.050781 74.371094 137.402344 72.964844 137.679688 C 71.554688 137.960938 70.140625 138.171875 68.710938 138.3125 C 67.285156 138.453125 65.855469 138.523438 64.417969 138.523438 C 62.984375 138.523438 61.554688 138.453125 60.125 138.3125 C 58.699219 138.171875 57.28125 137.960938 55.875 137.679688 C 54.46875 137.402344 53.078125 137.050781 51.707031 136.636719 C 50.335938 136.21875 48.984375 135.738281 47.660156 135.1875 C 46.335938 134.640625 45.039062 134.027344 43.773438 133.351562 C 42.511719 132.675781 41.28125 131.9375 40.089844 131.140625 C 38.894531 130.34375 37.746094 129.492188 36.636719 128.582031 C 35.527344 127.671875 34.464844 126.710938 33.453125 125.695312 C 32.4375 124.679688 31.476562 123.621094 30.566406 122.511719 C 29.65625 121.402344 28.804688 120.25 28.007812 119.058594 C 27.210938 117.867188 26.472656 116.636719 25.796875 115.371094 C 25.121094 114.105469 24.507812 112.8125 23.960938 111.488281 C 23.410156 110.160156 22.925781 108.8125 22.511719 107.441406 C 22.09375 106.066406 21.746094 104.679688 21.46875 103.273438 C 21.1875 101.863281 20.976562 100.449219 20.835938 99.019531 C 20.695312 97.59375 20.625 96.164062 20.625 94.726562 C 20.625 93.292969 20.695312 91.863281 20.835938 90.433594 C 20.976562 89.007812 21.1875 87.589844 21.46875 86.183594 C 21.746094 84.777344 22.09375 83.386719 22.511719 82.015625 C 22.925781 80.644531 23.410156 79.292969 23.960938 77.96875 C 24.507812 76.644531 25.121094 75.347656 25.796875 74.082031 C 26.472656 72.820312 27.210938 71.589844 28.007812 70.398438 C 28.804688 69.203125 29.65625 68.054688 30.566406 66.945312 C 31.476562 65.835938 32.4375 64.773438 33.453125 63.761719 C 34.464844 62.746094 35.527344 61.785156 36.636719 60.875 C 37.746094 59.964844 38.894531 59.113281 40.089844 58.316406 C 41.28125 57.519531 42.511719 56.78125 43.773438 56.105469 C 45.039062 55.429688 46.335938 54.816406 47.660156 54.269531 C 48.984375 53.71875 50.335938 53.234375 51.707031 52.820312 C 53.078125 52.402344 54.46875 52.054688 55.875 51.777344 C 57.28125 51.496094 58.699219 51.285156 60.125 51.144531 C 61.554688 51.003906 62.984375 50.933594 64.417969 50.933594 C 65.855469 50.933594 67.285156 51.003906 68.710938 51.144531 C 70.140625 51.285156 71.554688 51.496094 72.964844 51.777344 C 74.371094 52.054688 75.757812 52.402344 77.132812 52.820312 C 78.503906 53.234375 79.855469 53.71875 81.179688 54.269531 C 82.503906 54.816406 83.796875 55.429688 85.0625 56.105469 C 86.328125 56.78125 87.558594 57.519531 88.75 58.316406 C 89.941406 59.113281 91.09375 59.964844 92.203125 60.875 C 93.3125 61.785156 94.371094 62.746094 95.386719 63.761719 C 96.402344 64.773438 97.363281 65.835938 98.273438 66.945312 C 99.183594 68.054688 100.035156 69.203125 100.832031 70.398438 C 101.628906 71.589844 102.367188 72.820312 103.042969 74.082031 C 103.71875 75.347656 104.332031 76.644531 104.878906 77.96875 C 105.429688 79.292969 105.910156 80.644531 106.328125 82.015625 C 106.742188 83.386719 107.09375 84.777344 107.371094 86.183594 C 107.652344 87.589844 107.863281 89.007812 108.003906 90.433594 C 108.144531 91.863281 108.214844 93.292969 108.214844 94.726562 Z M 108.214844 94.726562 " fill-opacity="1" fill-rule="nonzero"/></g><g clip-path="url(#id8)"><path fill="#252f3e" d="M 42.175781 88.726562 C 42.175781 89.636719 42.273438 90.375 42.449219 90.914062 C 42.644531 91.457031 42.890625 92.046875 43.234375 92.683594 C 43.359375 92.878906 43.40625 93.078125 43.40625 93.25 C 43.40625 93.496094 43.257812 93.738281 42.941406 93.984375 L 41.386719 95.019531 C 41.167969 95.164062 40.945312 95.238281 40.746094 95.238281 C 40.503906 95.238281 40.253906 95.117188 40.007812 94.894531 C 39.664062 94.527344 39.371094 94.132812 39.125 93.738281 C 38.875 93.324219 38.628906 92.855469 38.359375 92.289062 C 36.4375 94.550781 34.027344 95.679688 31.121094 95.679688 C 29.050781 95.679688 27.402344 95.089844 26.195312 93.914062 C 24.988281 92.734375 24.375 91.160156 24.375 89.195312 C 24.375 87.105469 25.113281 85.410156 26.613281 84.132812 C 28.117188 82.855469 30.109375 82.21875 32.648438 82.21875 C 33.484375 82.21875 34.347656 82.292969 35.257812 82.414062 C 36.167969 82.539062 37.105469 82.734375 38.089844 82.957031 L 38.089844 81.160156 C 38.089844 79.292969 37.695312 77.992188 36.929688 77.230469 C 36.144531 76.46875 34.8125 76.101562 32.917969 76.101562 C 32.054688 76.101562 31.171875 76.199219 30.257812 76.421875 C 29.347656 76.640625 28.460938 76.910156 27.597656 77.253906 C 27.207031 77.425781 26.910156 77.527344 26.738281 77.574219 C 26.566406 77.625 26.441406 77.648438 26.34375 77.648438 C 26 77.648438 25.828125 77.402344 25.828125 76.886719 L 25.828125 75.683594 C 25.828125 75.289062 25.875 74.996094 26 74.824219 C 26.121094 74.652344 26.34375 74.480469 26.6875 74.308594 C 27.550781 73.867188 28.585938 73.496094 29.792969 73.203125 C 30.996094 72.882812 32.277344 72.734375 33.632812 72.734375 C 36.5625 72.734375 38.703125 73.398438 40.082031 74.726562 C 41.4375 76.050781 42.128906 78.066406 42.128906 80.769531 L 42.128906 88.730469 L 42.175781 88.730469 Z M 32.179688 92.460938 C 32.992188 92.460938 33.828125 92.316406 34.714844 92.019531 C 35.601562 91.726562 36.390625 91.183594 37.054688 90.449219 C 37.449219 89.980469 37.746094 89.464844 37.890625 88.875 C 38.039062 88.285156 38.136719 87.574219 38.136719 86.738281 L 38.136719 85.707031 C 37.425781 85.535156 36.660156 85.386719 35.871094 85.289062 C 35.085938 85.191406 34.320312 85.140625 33.558594 85.140625 C 31.910156 85.140625 30.703125 85.460938 29.890625 86.125 C 29.078125 86.789062 28.683594 87.722656 28.683594 88.949219 C 28.683594 90.105469 28.976562 90.964844 29.59375 91.554688 C 30.183594 92.167969 31.046875 92.460938 32.179688 92.460938 Z M 51.953125 95.117188 C 51.507812 95.117188 51.210938 95.042969 51.015625 94.871094 C 50.820312 94.722656 50.644531 94.378906 50.496094 93.914062 L 44.710938 74.921875 C 44.566406 74.429688 44.492188 74.109375 44.492188 73.9375 C 44.492188 73.546875 44.6875 73.324219 45.082031 73.324219 L 47.496094 73.324219 C 47.960938 73.324219 48.28125 73.398438 48.457031 73.570312 C 48.652344 73.71875 48.800781 74.0625 48.949219 74.527344 L 53.082031 90.792969 L 56.925781 74.527344 C 57.046875 74.039062 57.195312 73.71875 57.394531 73.570312 C 57.589844 73.421875 57.933594 73.324219 58.378906 73.324219 L 60.347656 73.324219 C 60.816406 73.324219 61.136719 73.398438 61.332031 73.570312 C 61.53125 73.71875 61.703125 74.0625 61.800781 74.527344 L 65.691406 90.988281 L 69.949219 74.527344 C 70.097656 74.039062 70.269531 73.71875 70.445312 73.570312 C 70.640625 73.421875 70.960938 73.324219 71.402344 73.324219 L 73.695312 73.324219 C 74.085938 73.324219 74.308594 73.523438 74.308594 73.9375 C 74.308594 74.0625 74.285156 74.183594 74.261719 74.332031 C 74.234375 74.480469 74.1875 74.675781 74.085938 74.945312 L 68.152344 93.9375 C 68.003906 94.429688 67.832031 94.746094 67.636719 94.894531 C 67.4375 95.042969 67.117188 95.140625 66.699219 95.140625 L 64.582031 95.140625 C 64.113281 95.140625 63.796875 95.066406 63.597656 94.894531 C 63.402344 94.722656 63.230469 94.402344 63.128906 93.914062 L 59.3125 78.066406 L 55.523438 93.886719 C 55.398438 94.378906 55.25 94.699219 55.054688 94.871094 C 54.859375 95.042969 54.511719 95.117188 54.070312 95.117188 Z M 83.589844 95.78125 C 82.308594 95.78125 81.03125 95.632812 79.800781 95.335938 C 78.570312 95.042969 77.609375 94.722656 76.96875 94.355469 C 76.574219 94.132812 76.304688 93.886719 76.203125 93.667969 C 76.105469 93.445312 76.054688 93.199219 76.054688 92.980469 L 76.054688 91.726562 C 76.054688 91.210938 76.253906 90.964844 76.621094 90.964844 C 76.769531 90.964844 76.917969 90.988281 77.066406 91.039062 C 77.214844 91.085938 77.4375 91.183594 77.683594 91.285156 C 78.519531 91.652344 79.433594 91.945312 80.390625 92.144531 C 81.375 92.339844 82.335938 92.4375 83.320312 92.4375 C 84.871094 92.4375 86.078125 92.167969 86.917969 91.628906 C 87.753906 91.085938 88.195312 90.300781 88.195312 89.292969 C 88.195312 88.605469 87.972656 88.039062 87.53125 87.574219 C 87.089844 87.105469 86.253906 86.691406 85.042969 86.296875 L 81.472656 85.191406 C 79.675781 84.625 78.347656 83.789062 77.535156 82.683594 C 76.722656 81.605469 76.304688 80.398438 76.304688 79.121094 C 76.304688 78.089844 76.523438 77.183594 76.96875 76.394531 C 77.414062 75.609375 78.003906 74.921875 78.742188 74.382812 C 79.480469 73.816406 80.316406 73.398438 81.300781 73.105469 C 82.285156 72.808594 83.320312 72.6875 84.40625 72.6875 C 84.945312 72.6875 85.511719 72.710938 86.054688 72.785156 C 86.621094 72.859375 87.136719 72.957031 87.65625 73.054688 C 88.144531 73.175781 88.613281 73.300781 89.058594 73.449219 C 89.503906 73.59375 89.84375 73.742188 90.09375 73.890625 C 90.4375 74.085938 90.683594 74.28125 90.828125 74.503906 C 90.976562 74.699219 91.054688 74.972656 91.054688 75.316406 L 91.054688 76.46875 C 91.054688 76.984375 90.855469 77.253906 90.488281 77.253906 C 90.289062 77.253906 89.96875 77.15625 89.550781 76.960938 C 88.144531 76.320312 86.570312 76.003906 84.824219 76.003906 C 83.417969 76.003906 82.308594 76.222656 81.550781 76.691406 C 80.785156 77.15625 80.390625 77.871094 80.390625 78.875 C 80.390625 79.566406 80.636719 80.15625 81.132812 80.621094 C 81.621094 81.089844 82.535156 81.554688 83.839844 81.972656 L 87.335938 83.078125 C 89.105469 83.644531 90.386719 84.429688 91.152344 85.4375 C 91.914062 86.445312 92.285156 87.597656 92.285156 88.875 C 92.285156 89.933594 92.0625 90.890625 91.644531 91.726562 C 91.203125 92.5625 90.609375 93.296875 89.84375 93.886719 C 89.085938 94.5 88.171875 94.945312 87.113281 95.261719 C 86.003906 95.609375 84.847656 95.78125 83.589844 95.78125 Z M 83.589844 95.78125 " fill-opacity="1" fill-rule="nonzero"/></g><g clip-path="url(#id9)"><path fill="#ff9900" d="M 88.246094 107.71875 C 80.144531 113.6875 68.375 116.859375 58.257812 116.859375 C 44.070312 116.859375 31.292969 111.625 21.640625 102.925781 C 20.878906 102.242188 21.566406 101.308594 22.476562 101.847656 C 32.917969 107.890625 45.796875 111.550781 59.117188 111.550781 C 68.101562 111.550781 77.980469 109.6875 87.0625 105.851562 C 88.417969 105.238281 89.574219 106.734375 88.242188 107.71875 Z M 91.621094 103.886719 C 90.585938 102.558594 84.773438 103.25 82.140625 103.566406 C 81.351562 103.667969 81.226562 102.976562 81.941406 102.460938 C 86.570312 99.21875 94.179688 100.152344 95.066406 101.234375 C 95.953125 102.339844 94.820312 109.929688 90.488281 113.566406 C 89.820312 114.132812 89.179688 113.835938 89.476562 113.101562 C 90.460938 110.667969 92.652344 105.1875 91.621094 103.886719 Z M 91.621094 103.886719 " fill-opacity="1" fill-rule="nonzero"/></g><g clip-path="url(#id10)"><path fill="#ffffff" d="M 195.371094 422.003906 C 195.371094 423.4375 195.300781 424.871094 195.160156 426.296875 C 195.019531 427.726562 194.808594 429.140625 194.527344 430.546875 C 194.25 431.957031 193.898438 433.34375 193.484375 434.71875 C 193.066406 436.089844 192.585938 437.4375 192.035156 438.765625 C 191.488281 440.089844 190.875 441.382812 190.199219 442.648438 C 189.523438 443.914062 188.785156 445.144531 187.988281 446.335938 C 187.191406 447.527344 186.339844 448.679688 185.429688 449.789062 C 184.519531 450.894531 183.558594 451.957031 182.542969 452.972656 C 181.527344 453.984375 180.46875 454.949219 179.359375 455.859375 C 178.25 456.769531 177.097656 457.621094 175.90625 458.417969 C 174.714844 459.214844 173.484375 459.953125 172.21875 460.628906 C 170.957031 461.304688 169.660156 461.917969 168.335938 462.464844 C 167.011719 463.015625 165.660156 463.496094 164.289062 463.914062 C 162.914062 464.328125 161.527344 464.675781 160.121094 464.957031 C 158.710938 465.238281 157.296875 465.449219 155.867188 465.589844 C 154.441406 465.726562 153.011719 465.796875 151.574219 465.796875 C 150.140625 465.796875 148.710938 465.726562 147.285156 465.589844 C 145.855469 465.449219 144.4375 465.238281 143.03125 464.957031 C 141.625 464.675781 140.234375 464.328125 138.863281 463.914062 C 137.492188 463.496094 136.140625 463.015625 134.816406 462.464844 C 133.492188 461.917969 132.195312 461.304688 130.929688 460.628906 C 129.667969 459.953125 128.4375 459.214844 127.246094 458.417969 C 126.050781 457.621094 124.902344 456.769531 123.792969 455.859375 C 122.683594 454.949219 121.621094 453.984375 120.609375 452.972656 C 119.59375 451.957031 118.632812 450.894531 117.722656 449.789062 C 116.8125 448.679688 115.960938 447.527344 115.164062 446.335938 C 114.367188 445.144531 113.628906 443.914062 112.953125 442.648438 C 112.277344 441.382812 111.664062 440.089844 111.117188 438.765625 C 110.566406 437.4375 110.085938 436.089844 109.667969 434.71875 C 109.25 433.34375 108.902344 431.957031 108.625 430.546875 C 108.34375 429.140625 108.132812 427.726562 107.992188 426.296875 C 107.851562 424.871094 107.78125 423.4375 107.78125 422.003906 C 107.78125 420.570312 107.851562 419.140625 107.992188 417.710938 C 108.132812 416.285156 108.34375 414.867188 108.625 413.460938 C 108.902344 412.054688 109.25 410.664062 109.667969 409.292969 C 110.085938 407.917969 110.566406 406.570312 111.117188 405.246094 C 111.664062 403.921875 112.277344 402.625 112.953125 401.359375 C 113.628906 400.09375 114.367188 398.867188 115.164062 397.675781 C 115.960938 396.480469 116.8125 395.332031 117.722656 394.222656 C 118.632812 393.113281 119.59375 392.050781 120.609375 391.039062 C 121.621094 390.023438 122.683594 389.0625 123.792969 388.152344 C 124.902344 387.242188 126.050781 386.386719 127.246094 385.589844 C 128.4375 384.792969 129.667969 384.058594 130.929688 383.382812 C 132.195312 382.707031 133.492188 382.09375 134.816406 381.542969 C 136.140625 380.996094 137.492188 380.511719 138.863281 380.097656 C 140.234375 379.679688 141.625 379.332031 143.03125 379.050781 C 144.4375 378.773438 145.855469 378.5625 147.285156 378.421875 C 148.710938 378.28125 150.140625 378.210938 151.574219 378.210938 C 153.011719 378.210938 154.441406 378.28125 155.867188 378.421875 C 157.296875 378.5625 158.710938 378.773438 160.121094 379.050781 C 161.527344 379.332031 162.914062 379.679688 164.289062 380.097656 C 165.660156 380.511719 167.011719 380.996094 168.335938 381.542969 C 169.660156 382.09375 170.957031 382.707031 172.21875 383.382812 C 173.484375 384.058594 174.714844 384.792969 175.90625 385.589844 C 177.097656 386.386719 178.25 387.242188 179.359375 388.152344 C 180.46875 389.0625 181.527344 390.023438 182.542969 391.039062 C 183.558594 392.050781 184.519531 393.113281 185.429688 394.222656 C 186.339844 395.332031 187.191406 396.480469 187.988281 397.675781 C 188.785156 398.867188 189.523438 400.09375 190.199219 401.359375 C 190.875 402.625 191.488281 403.921875 192.035156 405.246094 C 192.585938 406.570312 193.066406 407.917969 193.484375 409.292969 C 193.898438 410.664062 194.25 412.054688 194.527344 413.460938 C 194.808594 414.867188 195.019531 416.285156 195.160156 417.710938 C 195.300781 419.140625 195.371094 420.570312 195.371094 422.003906 Z M 195.371094 422.003906 " fill-opacity="1" fill-rule="nonzero"/></g><g clip-path="url(#id11)"><g clip-path="url(#id12)"><path fill="#fbbc05" d="M 123.875 437.476562 L 123.875 406.742188 L 143.984375 422.109375 Z M 123.875 437.476562 " fill-opacity="1" fill-rule="nonzero"/></g></g><g clip-path="url(#id13)"><g clip-path="url(#id14)"><path fill="#ea4335" d="M 123.875 406.742188 L 143.984375 422.109375 L 152.261719 414.898438 L 180.652344 410.285156 L 180.652344 393.738281 L 123.875 393.738281 Z M 123.875 406.742188 " fill-opacity="1" fill-rule="nonzero"/></g></g><g clip-path="url(#id15)"><g clip-path="url(#id16)"><path fill="#34a853" d="M 123.875 437.476562 L 159.359375 410.285156 L 168.703125 411.46875 L 180.652344 393.738281 L 180.652344 450.476562 L 123.875 450.476562 Z M 123.875 437.476562 " fill-opacity="1" fill-rule="nonzero"/></g></g><g clip-path="url(#id17)"><g clip-path="url(#id18)"><path fill="#4285f4" d="M 180.652344 450.476562 L 143.984375 422.109375 L 139.253906 418.5625 L 180.652344 406.742188 Z M 180.652344 450.476562 " fill-opacity="1" fill-rule="nonzero"/></g></g><g clip-path="url(#id19)"><path fill="#0177b5" d="M 253.46875 178.925781 L 213.917969 178.925781 C 212.03125 178.925781 210.492188 180.425781 210.492188 182.269531 L 210.492188 221.988281 C 210.492188 223.839844 212.03125 225.339844 213.917969 225.339844 L 253.472656 225.339844 C 255.363281 225.339844 256.90625 223.839844 256.90625 221.988281 L 256.90625 182.269531 C 256.90625 180.425781 255.363281 178.925781 253.46875 178.925781 Z M 253.46875 178.925781 " fill-opacity="1" fill-rule="nonzero"/></g><path fill="#ffffff" d="M 217.375 196.324219 L 224.269531 196.324219 L 224.269531 218.472656 L 217.375 218.472656 Z M 220.816406 185.300781 C 223.019531 185.300781 224.808594 187.089844 224.808594 189.292969 C 224.808594 191.492188 223.019531 193.285156 220.820312 193.285156 C 220.289062 193.285156 219.78125 193.179688 219.292969 192.976562 C 218.804688 192.773438 218.371094 192.488281 217.996094 192.113281 C 217.625 191.738281 217.335938 191.308594 217.132812 190.816406 C 216.929688 190.328125 216.828125 189.820312 216.824219 189.292969 C 216.824219 189.027344 216.851562 188.769531 216.902344 188.511719 C 216.953125 188.253906 217.027344 188.007812 217.128906 187.765625 C 217.230469 187.523438 217.351562 187.292969 217.496094 187.074219 C 217.644531 186.855469 217.808594 186.65625 217.996094 186.46875 C 218.179688 186.285156 218.382812 186.117188 218.601562 185.972656 C 218.816406 185.828125 219.046875 185.707031 219.289062 185.605469 C 219.53125 185.503906 219.78125 185.429688 220.039062 185.378906 C 220.296875 185.328125 220.554688 185.300781 220.816406 185.300781 M 228.578125 196.324219 L 235.179688 196.324219 L 235.179688 199.351562 L 235.273438 199.351562 C 236.191406 197.613281 238.4375 195.777344 241.796875 195.777344 C 248.769531 195.777344 250.054688 200.363281 250.054688 206.328125 L 250.054688 218.476562 L 243.175781 218.476562 L 243.175781 207.703125 C 243.175781 205.132812 243.128906 201.828125 239.601562 201.828125 C 236.015625 201.828125 235.464844 204.625 235.464844 207.511719 L 235.464844 218.46875 L 228.589844 218.46875 L 228.589844 196.320312 Z M 228.578125 196.324219 " fill-opacity="1" fill-rule="nonzero"/><g clip-path="url(#id20)"><path fill="#ffffff" d="M 820.496094 287.964844 C 820.496094 289.402344 820.425781 290.832031 820.285156 292.257812 C 820.144531 293.6875 819.933594 295.101562 819.652344 296.511719 C 819.375 297.917969 819.027344 299.304688 818.609375 300.679688 C 818.195312 302.050781 817.710938 303.398438 817.160156 304.726562 C 816.613281 306.050781 816 307.34375 815.324219 308.609375 C 814.648438 309.875 813.910156 311.105469 813.113281 312.296875 C 812.316406 313.488281 811.464844 314.640625 810.554688 315.75 C 809.644531 316.855469 808.683594 317.917969 807.667969 318.933594 C 806.65625 319.949219 805.59375 320.910156 804.484375 321.820312 C 803.375 322.730469 802.226562 323.582031 801.03125 324.378906 C 799.839844 325.175781 798.609375 325.914062 797.347656 326.589844 C 796.082031 327.265625 794.785156 327.878906 793.460938 328.425781 C 792.136719 328.976562 790.785156 329.457031 789.414062 329.875 C 788.042969 330.289062 786.652344 330.640625 785.246094 330.917969 C 783.839844 331.199219 782.421875 331.410156 780.996094 331.550781 C 779.566406 331.691406 778.136719 331.761719 776.703125 331.761719 C 775.265625 331.761719 773.835938 331.691406 772.410156 331.550781 C 770.980469 331.410156 769.566406 331.199219 768.15625 330.917969 C 766.75 330.640625 765.363281 330.289062 763.988281 329.875 C 762.617188 329.457031 761.269531 328.976562 759.941406 328.425781 C 758.617188 327.878906 757.324219 327.265625 756.058594 326.589844 C 754.792969 325.914062 753.5625 325.175781 752.371094 324.378906 C 751.179688 323.582031 750.027344 322.730469 748.917969 321.820312 C 747.808594 320.910156 746.75 319.949219 745.734375 318.933594 C 744.71875 317.917969 743.757812 316.855469 742.847656 315.75 C 741.9375 314.640625 741.085938 313.488281 740.289062 312.296875 C 739.492188 311.105469 738.753906 309.875 738.078125 308.609375 C 737.402344 307.34375 736.789062 306.050781 736.242188 304.726562 C 735.691406 303.398438 735.210938 302.050781 734.792969 300.679688 C 734.378906 299.304688 734.027344 297.917969 733.75 296.511719 C 733.46875 295.101562 733.257812 293.6875 733.117188 292.257812 C 732.976562 290.832031 732.90625 289.402344 732.90625 287.964844 C 732.90625 286.53125 732.976562 285.101562 733.117188 283.671875 C 733.257812 282.246094 733.46875 280.828125 733.75 279.421875 C 734.027344 278.015625 734.378906 276.625 734.792969 275.253906 C 735.210938 273.882812 735.691406 272.53125 736.242188 271.207031 C 736.789062 269.882812 737.402344 268.585938 738.078125 267.320312 C 738.753906 266.058594 739.492188 264.828125 740.289062 263.636719 C 741.085938 262.441406 741.9375 261.292969 742.847656 260.183594 C 743.757812 259.074219 744.71875 258.011719 745.734375 257 C 746.75 255.984375 747.808594 255.023438 748.917969 254.113281 C 750.027344 253.203125 751.179688 252.351562 752.371094 251.554688 C 753.5625 250.757812 754.792969 250.019531 756.058594 249.34375 C 757.324219 248.667969 758.617188 248.054688 759.941406 247.503906 C 761.269531 246.957031 762.617188 246.472656 763.988281 246.058594 C 765.363281 245.640625 766.75 245.292969 768.15625 245.015625 C 769.566406 244.734375 770.980469 244.523438 772.410156 244.382812 C 773.835938 244.242188 775.265625 244.171875 776.703125 244.171875 C 778.136719 244.171875 779.566406 244.242188 780.996094 244.382812 C 782.421875 244.523438 783.839844 244.734375 785.246094 245.015625 C 786.652344 245.292969 788.042969 245.640625 789.414062 246.058594 C 790.785156 246.472656 792.136719 246.957031 793.460938 247.503906 C 794.785156 248.054688 796.082031 248.667969 797.347656 249.34375 C 798.609375 250.019531 799.839844 250.757812 801.03125 251.554688 C 802.226562 252.351562 803.375 253.203125 804.484375 254.113281 C 805.59375 255.023438 806.65625 255.984375 807.667969 257 C 808.683594 258.011719 809.644531 259.074219 810.554688 260.183594 C 811.464844 261.292969 812.316406 262.441406 813.113281 263.636719 C 813.910156 264.828125 814.648438 266.058594 815.324219 267.320312 C 816 268.585938 816.613281 269.882812 817.160156 271.207031 C 817.710938 272.53125 818.195312 273.882812 818.609375 275.253906 C 819.027344 276.625 819.375 278.015625 819.652344 279.421875 C 819.933594 280.828125 820.144531 282.246094 820.285156 283.671875 C 820.425781 285.101562 820.496094 286.53125 820.496094 287.964844 Z M 820.496094 287.964844 " fill-opacity="1" fill-rule="nonzero"/></g><g clip-path="url(#id21)"><path fill="#1877f2" d="M 821.109375 288.273438 C 821.109375 268.839844 805.355469 253.089844 785.925781 253.089844 C 766.492188 253.089844 750.738281 268.839844 750.738281 288.273438 C 750.738281 305.835938 763.605469 320.390625 780.425781 323.03125 L 780.425781 298.445312 L 771.492188 298.445312 L 771.492188 288.273438 L 780.425781 288.273438 L 780.425781 280.519531 C 780.425781 271.703125 785.679688 266.832031 793.71875 266.832031 C 797.566406 266.832031 801.59375 267.519531 801.59375 267.519531 L 801.59375 276.179688 L 797.15625 276.179688 C 792.785156 276.179688 791.421875 278.890625 791.421875 281.671875 L 791.421875 288.273438 L 801.179688 288.273438 L 799.621094 298.445312 L 791.421875 298.445312 L 791.421875 323.03125 C 808.242188 320.390625 821.109375 305.835938 821.109375 288.273438 " fill-opacity="1" fill-rule="nonzero"/></g><g clip-path="url(#id22)"><path fill="#ffffff" d="M 799.621094 298.445312 L 801.179688 288.273438 L 791.421875 288.273438 L 791.421875 281.671875 C 791.421875 278.890625 792.785156 276.179688 797.15625 276.179688 L 801.59375 276.179688 L 801.59375 267.519531 C 801.59375 267.519531 797.566406 266.832031 793.71875 266.832031 C 785.679688 266.832031 780.425781 271.703125 780.425781 280.519531 L 780.425781 288.273438 L 771.492188 288.273438 L 771.492188 298.445312 L 780.425781 298.445312 L 780.425781 323.03125 C 782.21875 323.3125 784.054688 323.457031 785.925781 323.457031 C 787.792969 323.457031 789.632812 323.3125 791.421875 323.03125 L 791.421875 298.445312 L 799.621094 298.445312 " fill-opacity="1" fill-rule="nonzero"/></g><g clip-path="url(#id23)"><path fill="#ffffff" d="M 884.0625 43.792969 C 884.0625 45.226562 883.992188 46.660156 883.851562 48.085938 C 883.710938 49.515625 883.5 50.929688 883.21875 52.335938 C 882.941406 53.746094 882.589844 55.132812 882.175781 56.507812 C 881.757812 57.878906 881.277344 59.226562 880.726562 60.554688 C 880.179688 61.878906 879.566406 63.171875 878.890625 64.4375 C 878.214844 65.703125 877.476562 66.933594 876.679688 68.125 C 875.882812 69.316406 875.03125 70.46875 874.121094 71.578125 C 873.210938 72.683594 872.25 73.746094 871.234375 74.761719 C 870.21875 75.773438 869.15625 76.738281 868.050781 77.648438 C 866.941406 78.558594 865.789062 79.410156 864.597656 80.207031 C 863.40625 81.003906 862.175781 81.742188 860.910156 82.417969 C 859.644531 83.09375 858.351562 83.707031 857.027344 84.253906 C 855.699219 84.804688 854.351562 85.285156 852.980469 85.703125 C 851.605469 86.117188 850.21875 86.464844 848.8125 86.746094 C 847.402344 87.027344 845.988281 87.238281 844.558594 87.375 C 843.132812 87.515625 841.703125 87.585938 840.265625 87.585938 C 838.832031 87.585938 837.402344 87.515625 835.972656 87.375 C 834.546875 87.238281 833.128906 87.027344 831.722656 86.746094 C 830.316406 86.464844 828.925781 86.117188 827.554688 85.703125 C 826.183594 85.285156 824.832031 84.804688 823.507812 84.253906 C 822.183594 83.707031 820.886719 83.09375 819.621094 82.417969 C 818.359375 81.742188 817.128906 81.003906 815.9375 80.207031 C 814.742188 79.410156 813.59375 78.558594 812.484375 77.648438 C 811.375 76.738281 810.3125 75.773438 809.300781 74.761719 C 808.285156 73.746094 807.324219 72.683594 806.414062 71.578125 C 805.503906 70.46875 804.652344 69.316406 803.855469 68.125 C 803.058594 66.933594 802.320312 65.703125 801.644531 64.4375 C 800.96875 63.171875 800.355469 61.878906 799.804688 60.554688 C 799.257812 59.226562 798.773438 57.878906 798.359375 56.507812 C 797.941406 55.132812 797.59375 53.746094 797.316406 52.335938 C 797.035156 50.929688 796.824219 49.515625 796.683594 48.085938 C 796.542969 46.660156 796.472656 45.226562 796.472656 43.792969 C 796.472656 42.359375 796.542969 40.929688 796.683594 39.5 C 796.824219 38.074219 797.035156 36.65625 797.316406 35.25 C 797.59375 33.84375 797.941406 32.453125 798.359375 31.082031 C 798.773438 29.707031 799.257812 28.359375 799.804688 27.035156 C 800.355469 25.710938 800.96875 24.414062 801.644531 23.148438 C 802.320312 21.882812 803.058594 20.65625 803.855469 19.464844 C 804.652344 18.269531 805.503906 17.121094 806.414062 16.011719 C 807.324219 14.902344 808.285156 13.839844 809.300781 12.828125 C 810.3125 11.8125 811.375 10.851562 812.484375 9.941406 C 813.59375 9.03125 814.742188 8.175781 815.9375 7.378906 C 817.128906 6.582031 818.359375 5.847656 819.621094 5.171875 C 820.886719 4.496094 822.183594 3.882812 823.507812 3.332031 C 824.832031 2.785156 826.183594 2.300781 827.554688 1.886719 C 828.925781 1.46875 830.316406 1.121094 831.722656 0.839844 C 833.128906 0.5625 834.546875 0.351562 835.972656 0.210938 C 837.402344 0.0703125 838.832031 0 840.265625 0 C 841.703125 0 843.132812 0.0703125 844.558594 0.210938 C 845.988281 0.351562 847.402344 0.5625 848.8125 0.839844 C 850.21875 1.121094 851.605469 1.46875 852.980469 1.886719 C 854.351562 2.300781 855.699219 2.785156 857.027344 3.332031 C 858.351562 3.882812 859.644531 4.496094 860.910156 5.171875 C 862.175781 5.847656 863.40625 6.582031 864.597656 7.378906 C 865.789062 8.175781 866.941406 9.03125 868.050781 9.941406 C 869.15625 10.851562 870.21875 11.8125 871.234375 12.828125 C 872.25 13.839844 873.210938 14.902344 874.121094 16.011719 C 875.03125 17.121094 875.882812 18.269531 876.679688 19.464844 C 877.476562 20.65625 878.214844 21.882812 878.890625 23.148438 C 879.566406 24.414062 880.179688 25.710938 880.726562 27.035156 C 881.277344 28.359375 881.757812 29.707031 882.175781 31.082031 C 882.589844 32.453125 882.941406 33.84375 883.21875 35.25 C 883.5 36.65625 883.710938 38.074219 883.851562 39.5 C 883.992188 40.929688 884.0625 42.359375 884.0625 43.792969 Z M 884.0625 43.792969 " fill-opacity="1" fill-rule="nonzero"/></g><g clip-path="url(#id24)"><path fill="#1d9bf0" d="M 860.554688 69.019531 L 820.128906 69.019531 C 816.410156 69.019531 813.390625 66 813.390625 62.28125 L 813.390625 21.855469 C 813.390625 18.136719 816.410156 15.117188 820.128906 15.117188 L 860.554688 15.117188 C 864.273438 15.117188 867.292969 18.136719 867.292969 21.855469 L 867.292969 62.28125 C 867.292969 66 864.273438 69.019531 860.554688 69.019531 Z M 860.554688 69.019531 " fill-opacity="1" fill-rule="nonzero"/></g><path fill="#ffffff" d="M 834.089844 55.757812 C 846.796875 55.757812 853.75 45.222656 853.75 36.097656 C 853.75 35.800781 853.75 35.507812 853.734375 35.210938 C 855.082031 34.238281 856.253906 33.011719 857.183594 31.625 C 855.945312 32.179688 854.613281 32.542969 853.210938 32.714844 C 854.636719 31.867188 855.730469 30.507812 856.253906 28.890625 C 854.921875 29.683594 853.4375 30.25 851.863281 30.5625 C 850.597656 29.214844 848.804688 28.378906 846.824219 28.378906 C 843.007812 28.378906 839.910156 31.476562 839.910156 35.289062 C 839.910156 35.828125 839.976562 36.355469 840.085938 36.867188 C 834.34375 36.585938 829.25 33.820312 825.84375 29.644531 C 825.25 30.667969 824.914062 31.855469 824.914062 33.121094 C 824.914062 35.519531 826.140625 37.636719 827.984375 38.875 C 826.851562 38.835938 825.789062 38.523438 824.859375 38.011719 C 824.859375 38.039062 824.859375 38.066406 824.859375 38.105469 C 824.859375 41.449219 827.242188 44.25 830.398438 44.882812 C 829.816406 45.046875 829.210938 45.128906 828.578125 45.128906 C 828.132812 45.128906 827.703125 45.085938 827.285156 45.007812 C 828.160156 47.753906 830.71875 49.75 833.738281 49.804688 C 831.367188 51.664062 828.390625 52.769531 825.15625 52.769531 C 824.601562 52.769531 824.050781 52.742188 823.511719 52.671875 C 826.558594 54.613281 830.195312 55.757812 834.089844 55.757812 " fill-opacity="1" fill-rule="nonzero"/></svg>