<?xml version="1.0" encoding="utf-8"?>
<!-- Generator: Adobe Illustrator 18.0.0, SVG Export Plug-In . SVG Version: 6.00 Build 0)  -->
<!DOCTYPE svg PUBLIC "-//W3C//DTD SVG 1.1//EN" "http://www.w3.org/Graphics/SVG/1.1/DTD/svg11.dtd">
<svg version="1.1" id="ecommerce_1_" xmlns="http://www.w3.org/2000/svg" xmlns:xlink="http://www.w3.org/1999/xlink" x="0px"
	 y="0px" viewBox="0 0 115 115" style="enable-background:new 0 0 115 115;" xml:space="preserve">
<style type="text/css">
	.st0{fill:#FFEEAD;}
	.st1{fill:#C9B77D;}
	.st2{fill:#99734A;}
	.st3{fill:#FF6F69;}
	.st4{fill:#96CEB4;}
	.st5{fill:none;}
	.st6{fill:#AA9865;}
	.st7{fill:#71A58A;}
	.st8{fill:#FFCC5C;}
	.st9{fill:#825E3B;}
	.st10{fill:#639376;}
	.st11{fill:#E05858;}
	.st12{fill:#C1821E;}
	.st13{fill:#D6A041;}
	.st14{fill:#B28559;}
	.st15{fill:#BF4343;}
	.st16{fill:#D3C089;}
	.st17{fill:#7C5C3C;}
	.st18{fill:#FDCC5C;}
	.st19{fill:#FFFFFF;}
</style>
<g id="location_1_">
	<g>
		<g>
			
				<ellipse transform="matrix(-0.0139 -0.9999 0.9999 -0.0139 -75.7158 135.8223)" class="st4" cx="29.113" cy="105.245" rx="9.749" ry="26.996"/>
		</g>
	</g>
	<g>
		<g>
			
				<ellipse transform="matrix(-0.014 -0.9999 0.9999 -0.014 -73.406 133.4144)" class="st7" cx="29.08" cy="102.902" rx="5.249" ry="14.998"/>
		</g>
	</g>
	<g>
		<g>
			<g>
				
					<ellipse transform="matrix(-0.0139 -0.9999 0.9999 -0.0139 2.7817 125.6561)" class="st4" cx="63.349" cy="61.456" rx="11.061" ry="39.932"/>
			</g>
		</g>
		<g>
			<g>
				
					<ellipse transform="matrix(-0.0139 -0.9999 0.9999 -0.0139 6.6464 120.8548)" class="st7" cx="62.914" cy="57.15" rx="4.124" ry="20.06"/>
			</g>
		</g>
		<g>
			<g>
				<g>
					<path class="st3" d="M62.116,0.002C50.252,0.168,40.768,9.97,40.935,21.897c0.166,11.927,15.153,33.77,21.957,33.674
						c6.336-0.088,21.175-22.347,21.009-34.274C83.734,9.371,73.981-0.163,62.116,0.002z"/>
				</g>
			</g>
			<g>
				<g>
					
						<ellipse transform="matrix(-0.0139 -0.9999 0.9999 -0.0139 41.3431 84.675)" class="st0" cx="62.423" cy="21.952" rx="11.236" ry="11.177"/>
				</g>
			</g>
		</g>
	</g>
	<g>
		<g>
			<g>
				<g>
					<path class="st7" d="M42.032,68.013c0.308-0.004,0.614-0.115,0.861-0.336c0.188-0.168,0.385-0.331,0.582-0.488
						c1.681-1.341,3.616-2.547,5.752-3.581c0.655-0.318,0.929-1.107,0.612-1.762c-0.318-0.655-1.103-0.93-1.763-0.612
						c-2.31,1.12-4.412,2.43-6.247,3.894c-0.236,0.189-0.47,0.383-0.694,0.584c-0.543,0.486-0.59,1.32-0.103,1.863
						C41.296,67.87,41.664,68.018,42.032,68.013z M56.095,61.037c0.103-0.001,0.207-0.014,0.311-0.042
						c2.469-0.635,5.014-1.047,7.568-1.224c0.726-0.051,1.275-0.681,1.224-1.407c-0.051-0.727-0.645-1.273-1.407-1.225
						c-2.712,0.189-5.418,0.626-8.041,1.301c-0.706,0.181-1.13,0.9-0.949,1.606C54.954,60.648,55.501,61.045,56.095,61.037z
						 M28.166,98.497c-1.916,0.472-3.829,1.003-5.687,1.58c-0.695,0.216-1.084,0.954-0.869,1.65
						c0.177,0.572,0.708,0.937,1.278,0.929c0.122-0.002,0.248-0.022,0.373-0.06c1.808-0.561,3.67-1.078,5.535-1.538
						c0.708-0.174,1.139-0.889,0.966-1.596C29.588,98.754,28.875,98.327,28.166,98.497z M106.369,80.915
						c-0.669-0.29-1.444,0.018-1.735,0.684c-0.291,0.668,0.015,1.445,0.684,1.736c3.062,1.331,4.725,2.686,4.942,4.028
						c0.106,0.654,0.675,1.117,1.319,1.108c0.064-0.001,0.129-0.006,0.194-0.017c0.719-0.116,1.208-0.794,1.091-1.513
						C112.364,83.853,108.917,82.023,106.369,80.915z M57.81,74.992c-0.056,0.726,0.489,1.359,1.215,1.415
						c2.634,0.2,5.278,0.35,7.926,0.5c0.032,0.002,0.063,0.002,0.094,0.002c0.687-0.01,1.258-0.549,1.297-1.245
						c0.041-0.728-0.515-1.351-1.242-1.392c-2.629-0.148-5.258-0.298-7.874-0.496C58.477,73.728,57.865,74.265,57.81,74.992z
						 M74.83,77.391c0.582,0.043,1.162,0.088,1.743,0.135c2.164,0.177,4.179,0.35,6.103,0.546c0.052,0.006,0.103,0.008,0.153,0.007
						c0.661-0.009,1.225-0.513,1.292-1.185c0.074-0.725-0.453-1.372-1.178-1.446c-1.939-0.198-3.972-0.372-6.155-0.551
						c-0.588-0.048-1.176-0.094-1.766-0.136c-0.704-0.061-1.36,0.493-1.412,1.219C73.557,76.706,74.103,77.338,74.83,77.391z
						 M43.93,95.786c-2.73,0.291-5.394,0.656-7.923,1.086c-0.717,0.122-1.201,0.804-1.079,1.522c0.111,0.65,0.679,1.107,1.318,1.098
						c0.067-0.001,0.135-0.007,0.205-0.018c2.473-0.421,5.084-0.779,7.758-1.064c0.724-0.077,1.25-0.727,1.173-1.452
						C45.302,96.234,44.662,95.699,43.93,95.786z M91.51,94.818c-2.655,0.032-5.286,0.036-7.895,0.027
						c-0.701-0.005-1.321,0.586-1.324,1.315c-0.003,0.729,0.587,1.321,1.315,1.324c2.625,0.008,5.268,0.005,7.936-0.028
						c0.001,0,0.003,0,0.003,0c0.728-0.01,1.31-0.607,1.301-1.335C92.836,95.393,92.239,94.809,91.51,94.818z M99.629,79.919
						c0.199-0.701-0.209-1.431-0.91-1.629c-2.59-0.732-5.155-1.316-7.843-1.784c-0.713-0.124-1.402,0.356-1.526,1.073
						c-0.125,0.718,0.355,1.401,1.073,1.526c2.599,0.453,5.078,1.017,7.579,1.725c0.125,0.036,0.253,0.052,0.377,0.05
						C98.948,80.872,99.467,80.494,99.629,79.919z M106.267,91.536c-0.443,0.206-0.891,0.405-1.335,0.602
						c-0.517,0.23-1.027,0.456-1.511,0.686c-1.064,0.503-2.542,0.949-4.274,1.288c-0.716,0.139-1.181,0.833-1.043,1.548
						c0.125,0.636,0.686,1.075,1.312,1.066c0.077-0.001,0.157-0.009,0.235-0.024c1.974-0.386,3.621-0.887,4.897-1.492
						c0.466-0.22,0.956-0.438,1.454-0.659c0.457-0.204,0.921-0.41,1.376-0.622c0.661-0.307,0.947-1.092,0.639-1.753
						C107.712,91.514,106.926,91.226,106.267,91.536z M59.848,94.839c-0.004,0-0.006,0-0.01,0c-2.849,0.063-5.452,0.162-7.956,0.305
						c-0.727,0.041-1.283,0.665-1.242,1.392c0.041,0.708,0.632,1.254,1.334,1.244c0.019,0,0.039-0.001,0.058-0.002
						c2.473-0.141,5.045-0.239,7.863-0.301c0.729-0.016,1.307-0.619,1.29-1.348C61.169,95.405,60.572,94.829,59.848,94.839z
						 M51.272,75.612c0.644-0.009,1.2-0.488,1.288-1.145c0.096-0.722-0.411-1.386-1.134-1.481c-1.172-0.156-2.338-0.333-3.5-0.533
						c-1.43-0.248-2.798-0.634-3.855-1.089c-0.674-0.29-1.445,0.022-1.734,0.69c-0.288,0.669,0.021,1.445,0.69,1.733
						c1.59,0.685,3.298,1.067,4.448,1.266c1.195,0.207,2.397,0.388,3.602,0.549C51.143,75.609,51.209,75.612,51.272,75.612z
						 M75.706,94.795c-2.661-0.02-5.301-0.037-7.926-0.036c-0.006,0-0.013,0-0.018,0c-0.72,0.01-1.301,0.597-1.301,1.32
						c0,0.729,0.592,1.32,1.32,1.319c2.617-0.001,5.252,0.016,7.905,0.037c0.009,0,0.019,0,0.028,0
						c0.716-0.01,1.296-0.59,1.301-1.309C77.021,95.395,76.434,94.801,75.706,94.795z"/>
				</g>
			</g>
		</g>
	</g>
</g>
</svg>
