<svg xmlns="http://www.w3.org/2000/svg" viewBox="0 0 60 60"><defs><style>.cls-1{fill:#ffe45c;}.cls-2{fill:#fff;}.cls-3{fill:#ffc247;}.cls-4{fill:#ffda45;}.cls-5{fill:#2b1505;}.cls-6{fill:#bec3d2;}</style></defs><title>9-Email</title><g id="_9-Email" data-name="9-Email"><polygon class="cls-1" points="8 15 8 23.75 3 20 8 15"/><path class="cls-2" d="M52,15v8.75L35.88,35.84,33,38a4.38,4.38,0,0,1-3,1,4.38,4.38,0,0,1-3-1l-2.88-2.16L8,23.75V6a5,5,0,0,1,5-5H47a5,5,0,0,1,5,5Z"/><polygon class="cls-1" points="57 20 52 23.75 52 15 57 20"/><path class="cls-3" d="M57,20a7.616,7.616,0,0,1,2,5V53a5.944,5.944,0,0,1-1.76,4.24L57,57,36,36l-.12-.16L52,23.75Z"/><path class="cls-1" d="M57,57l.24.24A5.944,5.944,0,0,1,53,59H7a5.944,5.944,0,0,1-4.24-1.76L3,57,24,36l.12-.16L27,38a4.38,4.38,0,0,0,3,1,4.38,4.38,0,0,0,3-1l2.88-2.16L36,36Z"/><path class="cls-3" d="M8,23.75,24.12,35.84,24,36,3,57l-.24.24A5.944,5.944,0,0,1,1,53V25a7.616,7.616,0,0,1,2-5Z"/><path class="cls-3" d="M27,42a4.38,4.38,0,0,0,3,1,4.38,4.38,0,0,0,3-1l2.94-2.08,2.33-1.65L36,36l-.06-.08L33,38a4.38,4.38,0,0,1-3,1,4.38,4.38,0,0,1-3-1l-2.94-2.08L24,36l-2.27,2.27,2.33,1.65Z"/><path class="cls-4" d="M55,55H5L3,57l-.24.24A5.944,5.944,0,0,0,7,59H53a5.944,5.944,0,0,0,4.24-1.76L57,57Z"/><path class="cls-5" d="M57.712,19.3l-.005-.008L53,14.586V6a6.006,6.006,0,0,0-6-6H13A6.006,6.006,0,0,0,7,6v8.586L2.293,19.293l-.005.008A8.547,8.547,0,0,0,0,25V53a7.008,7.008,0,0,0,7,7H53a7.008,7.008,0,0,0,7-7V25A8.547,8.547,0,0,0,57.712,19.3Zm-2.234.591L53,21.75V17.414ZM9,6a4,4,0,0,1,4-4H47a4,4,0,0,1,4,4V23.25L32.4,37.2c-.029.022-.069.057-.1.082A3.461,3.461,0,0,1,30,38a3.478,3.478,0,0,1-2.293-.707A.951.951,0,0,0,27.6,37.2L9,23.25ZM7,21.75,4.522,19.892,7,17.414ZM2,25a7.068,7.068,0,0,1,1.153-3.635l19.467,14.6L2.829,55.757A4.947,4.947,0,0,1,2,53ZM7,58a4.936,4.936,0,0,1-2.756-.83L24.236,37.178l2.12,1.59A5.428,5.428,0,0,0,30,40a5.428,5.428,0,0,0,3.644-1.232l2.12-1.59L55.757,57.171A4.947,4.947,0,0,1,53,58Zm51-5a4.936,4.936,0,0,1-.83,2.756L37.38,35.966l19.467-14.6A7.068,7.068,0,0,1,58,25Z"/><path class="cls-5" d="M35,11a3,3,0,0,0,6,0c0-6.92-4.95-7-5-7a.994.994,0,0,0-.993.987A1.006,1.006,0,0,0,35.987,6a2.946,2.946,0,0,1,2.519,2.051A2.958,2.958,0,0,0,35,11Zm3,1a1,1,0,1,1,1-1A1,1,0,0,1,38,12Z"/><path class="cls-5" d="M43,11a3,3,0,0,0,6,0c0-6.92-4.95-7-5-7a.994.994,0,0,0-.993.987A1.006,1.006,0,0,0,43.987,6a2.946,2.946,0,0,1,2.519,2.051A2.958,2.958,0,0,0,43,11Zm3,1a1,1,0,1,1,1-1A1,1,0,0,1,46,12Z"/><path class="cls-5" d="M37,29H23a1,1,0,0,0,0,2H37a1,1,0,0,0,0-2Z"/><path class="cls-5" d="M41,25H19a1,1,0,0,0,0,2H41a1,1,0,0,0,0-2Z"/><path class="cls-5" d="M13,23H47a1,1,0,0,0,0-2H13a1,1,0,0,0,0,2Z"/><path class="cls-5" d="M37,17a1,1,0,0,0,0,2h8a1,1,0,0,0,0-2Z"/><circle class="cls-6" cx="29" cy="18" r="1"/><circle class="cls-6" cx="33" cy="18" r="1"/></g></svg>