<svg xmlns="http://www.w3.org/2000/svg" xmlns:xlink="http://www.w3.org/1999/xlink" width="400" zoomAndPan="magnify" viewBox="0 0 300 299.999988" height="400" preserveAspectRatio="xMidYMid meet" version="1.0"><defs><clipPath id="id1"><path d="M 2.375 27.101562 L 300 27.101562 L 300 274.601562 L 2.375 274.601562 Z M 2.375 27.101562 " clip-rule="nonzero"/></clipPath></defs><g clip-path="url(#id1)"><path fill="#fadb5e" d="M 99.402344 29.1875 C 99.078125 27.894531 97.847656 27.117188 96.554688 27.441406 C 95.714844 27.636719 95 28.347656 94.808594 29.1875 C 90.664062 44.699219 80.4375 73.328125 57.914062 90.84375 C 42.246094 102.992188 23.929688 111.394531 4.511719 115.339844 C 3.21875 115.597656 2.375 116.824219 2.632812 118.117188 C 2.828125 119.023438 3.476562 119.667969 4.316406 119.925781 C 20.109375 124.320312 47.554688 133.953125 61.472656 150.304688 C 72.476562 163.230469 82.25 195.609375 86.523438 211.441406 C 86.910156 212.671875 88.203125 213.445312 89.433594 213.058594 C 90.210938 212.863281 90.859375 212.21875 91.054688 211.441406 C 95.453125 195.351562 106.847656 162.066406 128.140625 147.910156 C 147.171875 135.246094 168.339844 128.910156 180.3125 126.066406 C 181.609375 125.742188 182.320312 124.453125 181.996094 123.160156 C 181.800781 122.382812 181.21875 121.738281 180.441406 121.542969 C 166.007812 117.277344 139.144531 107.648438 128.140625 93.234375 C 111.054688 70.875 102.898438 43.921875 99.402344 29.1875 Z M 219.085938 162 C 218.890625 161.226562 218.113281 160.773438 217.339844 160.96875 C 216.820312 161.097656 216.433594 161.484375 216.300781 162 C 213.777344 171.5 207.5 189.015625 193.710938 199.679688 C 184.132812 207.113281 172.933594 212.21875 161.023438 214.609375 C 160.246094 214.738281 159.730469 215.515625 159.925781 216.289062 C 160.054688 216.808594 160.441406 217.257812 160.960938 217.390625 C 170.605469 220.101562 187.433594 225.921875 195.914062 235.9375 C 202.644531 243.824219 208.601562 263.664062 211.253906 273.359375 C 211.449219 274.132812 212.289062 274.585938 213 274.390625 C 213.519531 274.261719 213.84375 273.875 214.035156 273.359375 C 216.753906 263.535156 223.679688 243.175781 236.691406 234.515625 C 248.34375 226.761719 261.289062 222.882812 268.601562 221.136719 C 269.378906 220.945312 269.832031 220.167969 269.636719 219.390625 C 269.507812 218.875 269.121094 218.488281 268.667969 218.359375 C 259.800781 215.707031 243.421875 209.890625 236.691406 201.039062 C 226.207031 187.53125 221.222656 171.050781 219.085938 162 Z M 266.402344 53.941406 C 266.273438 53.421875 265.753906 53.101562 265.238281 53.230469 C 264.914062 53.292969 264.65625 53.550781 264.523438 53.941406 C 262.84375 60.273438 258.699219 71.84375 249.507812 78.953125 C 243.164062 83.863281 235.722656 87.289062 227.824219 88.90625 C 227.304688 89.035156 226.984375 89.488281 227.046875 90.003906 C 227.113281 90.390625 227.371094 90.648438 227.757812 90.714844 C 234.167969 92.523438 245.300781 96.402344 250.996094 103.058594 C 255.460938 108.292969 259.410156 121.476562 261.160156 127.875 C 261.289062 128.394531 261.804688 128.652344 262.324219 128.523438 C 262.648438 128.457031 262.90625 128.199219 262.972656 127.875 C 264.785156 121.347656 269.378906 107.839844 278.054688 102.089844 C 285.753906 96.917969 294.363281 94.398438 299.285156 93.234375 C 299.800781 93.105469 300.125 92.589844 299.996094 92.070312 C 299.929688 91.75 299.671875 91.488281 299.347656 91.359375 C 293.457031 89.617188 282.585938 85.738281 278.117188 79.855469 C 271.191406 70.875 267.824219 59.949219 266.402344 53.941406 Z M 266.402344 53.941406 " fill-opacity="1" fill-rule="nonzero"/></g></svg>